<?xml version="1.0" encoding="utf-8"?>
<!-- Generator: Adobe Illustrator 16.0.0, SVG Export Plug-In . SVG Version: 6.00 Build 0)  -->
<!DOCTYPE svg PUBLIC "-//W3C//DTD SVG 1.1//EN" "http://www.w3.org/Graphics/SVG/1.1/DTD/svg11.dtd">
<svg version="1.1" id="Layer_1" xmlns="http://www.w3.org/2000/svg" xmlns:xlink="http://www.w3.org/1999/xlink" x="0px" y="0px"
	 width="612px" height="792px" viewBox="0 0 612 792" enable-background="new 0 0 612 792" xml:space="preserve">
<title>logo-purple</title>
<g>
	<path fill="#339444" d="M581.648,58.212c8.297-2.804,16.565-5.493,24.821-8.1H497.963C483.84,55,469.666,60.289,455.475,66.013
		C218.763,161.533,66.64,337.541,115.707,459.126c23.973,59.406,91.555,94.819,181.997,104.366
		c-83.577-16.798-142.19-53.08-159.999-105.711C95.889,334.214,294.662,155.307,581.648,58.212L581.648,58.212z"/>
	<path fill="#339444" d="M70.015,442.342c10.218,19.458,23.926,36.337,40.438,50.607c-5.31-7.034-10.096-14.476-14.258-22.404
		C33.407,350.916,130.406,176.287,312.858,80.522c22.729-11.929,45.707-22.025,68.653-30.41h-100.89
		C100.662,146.325,6.438,321.205,70.015,442.342L70.015,442.342z"/>
	<path fill="#339444" d="M175.61,50.112h-74.86c0,0-164.697,173.672-60.887,353.326C39.863,403.438-35.995,188.853,175.61,50.112
		L175.61,50.112z"/>
</g>
<path fill="#4A6A7C" d="M606.843,342.984c-10.723,15.211-28.415,25.151-48.435,25.151c-32.738,0-59.269-26.53-59.269-59.259
	s26.53-59.259,59.269-59.259c20.02,0,37.712,9.945,48.435,25.151v-73.154c-14.3-5.651-29.97-8.778-46.412-8.778
	c-66.946,0-121.222,51.649-121.222,115.359c0,63.72,54.275,115.373,121.222,115.373c16.442,0,32.112-3.136,46.412-8.782V342.984
	L606.843,342.984z"/>
<path fill="#4A6A7C" d="M407.069,342.984c-10.723,15.211-28.415,25.151-48.435,25.151c-32.738,0-59.269-26.53-59.269-59.259
	s26.53-59.259,59.269-59.259c20.02,0,37.712,9.945,48.435,25.151v-73.154c-14.3-5.651-29.97-8.778-46.412-8.778
	c-66.947,0-121.221,51.649-121.221,115.359c0,63.72,54.274,115.373,121.221,115.373c16.442,0,32.112-3.136,46.412-8.782V342.984
	L407.069,342.984z"/>
<polygon fill="#49697B" points="207.351,417.702 152.598,417.702 152.598,198.695 207.351,198.695 207.351,417.702 "/>
<g>
	<path fill="#234F60" d="M178.169,461.356c-0.855,0.47-1.788,0.872-2.806,1.198c-1.009,0.328-2.001,0.588-2.976,0.785
		c-0.966,0.196-1.873,0.338-2.72,0.428c-0.838,0.089-1.521,0.137-2.044,0.137c-2.249,0-4.31-0.381-6.175-1.142
		c-1.863-0.761-3.463-1.81-4.797-3.147c-1.326-1.341-2.361-2.933-3.095-4.78c-0.736-1.848-1.104-3.865-1.104-6.056
		c0-2.368,0.419-4.466,1.257-6.296c0.83-1.833,1.984-3.371,3.455-4.62c1.471-1.248,3.207-2.197,5.217-2.844
		c2.01-0.646,4.19-0.97,6.542-0.97c1.326,0,2.592,0.085,3.806,0.261c1.198,0.171,2.377,0.38,3.523,0.624
		c0.146,0.03,0.266,0.104,0.36,0.211c0.084,0.102,0.136,0.213,0.153,0.328c0.017,0.23,0.034,0.521,0.06,0.88
		c0.026,0.359,0.043,0.749,0.06,1.169c0.017,0.414,0.034,0.837,0.069,1.274c0.016,0.43,0.042,0.832,0.051,1.196
		c0.016,0.368,0.034,0.685,0.042,0.944c0.009,0.261,0.009,0.428,0.009,0.493l-1.223,0.118c-0.094-1.008-0.394-1.868-0.898-2.568
		c-0.496-0.707-1.112-1.271-1.848-1.707c-0.735-0.431-1.548-0.744-2.437-0.941c-0.89-0.195-1.771-0.295-2.661-0.295
		c-1.778,0-3.326,0.295-4.643,0.881c-1.308,0.591-2.403,1.402-3.283,2.442c-0.873,1.034-1.531,2.263-1.958,3.673
		c-0.437,1.415-0.65,2.954-0.65,4.622c0,1.942,0.265,3.751,0.795,5.426c0.53,1.677,1.325,3.126,2.386,4.35
		c1.061,1.228,2.395,2.193,3.968,2.895c1.591,0.701,3.447,1.053,5.568,1.053c1.273,0,2.505-0.138,3.702-0.416
		c1.198-0.276,2.403-0.654,3.626-1.129L178.169,461.356L178.169,461.356z"/>
	<path fill="#234F60" d="M193.99,436.11c-1.591,0-2.968,0.325-4.105,0.979c-1.146,0.655-2.086,1.533-2.813,2.627
		c-0.727,1.09-1.257,2.353-1.599,3.771c-0.342,1.424-0.522,2.899-0.522,4.438c0,1.714,0.18,3.404,0.556,5.071
		c0.358,1.669,0.949,3.151,1.745,4.46c0.803,1.309,1.847,2.364,3.113,3.172c1.282,0.813,2.813,1.215,4.618,1.215
		c1.59,0,2.967-0.338,4.104-1.018c1.146-0.676,2.087-1.578,2.813-2.693c0.728-1.12,1.257-2.403,1.599-3.849
		c0.343-1.444,0.522-2.938,0.522-4.472c0-1.716-0.18-3.397-0.556-5.039c-0.359-1.641-0.95-3.103-1.745-4.386
		c-0.804-1.282-1.847-2.318-3.113-3.1C197.325,436.503,195.794,436.11,193.99,436.11L193.99,436.11z M195.221,434.05
		c2.104,0,4.01,0.328,5.712,0.982c1.694,0.654,3.147,1.596,4.344,2.831c1.206,1.231,2.138,2.749,2.788,4.545
		c0.65,1.797,0.975,3.832,0.975,6.103c0,2.485-0.359,4.682-1.086,6.595c-0.727,1.91-1.762,3.514-3.104,4.813
		c-1.334,1.302-2.951,2.289-4.84,2.969c-1.881,0.675-3.985,1.018-6.311,1.018c-2.104,0-4.012-0.343-5.722-1.018
		c-1.702-0.68-3.156-1.646-4.362-2.908c-1.205-1.257-2.128-2.793-2.77-4.604c-0.642-1.813-0.967-3.866-0.967-6.154
		c0-2.466,0.359-4.648,1.095-6.541c0.718-1.894,1.762-3.48,3.096-4.755c1.334-1.275,2.959-2.237,4.84-2.892
		C190.792,434.378,192.904,434.05,195.221,434.05L195.221,434.05z"/>
	<path fill="#234F60" d="M239.093,440.793l-9.151,22.298c-0.059,0.185-0.206,0.287-0.436,0.322
		c-0.291,0.033-0.625,0.056-0.992,0.072c-0.368,0.018-0.744,0.025-1.111,0.025c-0.265,0-0.445-0.124-0.539-0.368l-8.586-22.646
		l-2.813,22.573c-0.034,0.197-0.18,0.299-0.436,0.316c-0.299,0.035-0.667,0.064-1.094,0.085c-0.429,0.027-0.89,0.039-1.361,0.039
		c-0.231,0-0.342-0.089-0.342-0.269c0-0.116,0.008-0.198,0.026-0.249l4.772-26.023l-0.779-2.159
		c-0.035-0.099-0.051-0.18-0.051-0.243c0-0.26,0.163-0.419,0.487-0.467c0.266-0.051,0.564-0.096,0.924-0.137
		c0.351-0.038,0.693-0.077,1.026-0.106c0.342-0.035,0.642-0.061,0.924-0.072c0.274-0.018,0.479-0.025,0.615-0.025
		c0.171,0,0.309,0.046,0.411,0.144c0.103,0.099,0.188,0.24,0.274,0.42l8.773,23.107l8.997-20.583l-0.256-2.037
		c-0.018-0.018-0.018-0.081-0.018-0.196c0-0.274,0.154-0.45,0.462-0.514c0.264-0.051,0.564-0.096,0.906-0.137
		c0.342-0.038,0.684-0.077,1.009-0.106c0.325-0.035,0.625-0.061,0.89-0.072c0.273-0.018,0.47-0.025,0.598-0.025
		c0.411,0,0.642,0.188,0.693,0.563l3.327,28.084c0.018,0.064,0.035,0.12,0.035,0.158c0,0.044,0,0.078,0,0.111
		c0,0.313-0.163,0.492-0.471,0.54c-0.282,0.051-0.599,0.093-0.958,0.136c-0.359,0.04-0.71,0.072-1.052,0.099
		c-0.342,0.021-0.658,0.039-0.94,0.048c-0.292,0.009-0.497,0.012-0.633,0.012c-0.137,0-0.265-0.029-0.359-0.086
		c-0.102-0.06-0.154-0.149-0.171-0.282L239.093,440.793L239.093,440.793z"/>
	<path fill="#234F60" d="M276.704,440.793l-9.134,22.298c-0.068,0.185-0.214,0.287-0.444,0.322
		c-0.291,0.033-0.625,0.056-0.992,0.072c-0.369,0.018-0.735,0.025-1.112,0.025c-0.265,0-0.446-0.124-0.548-0.368l-8.569-22.646
		l-2.821,22.573c-0.035,0.197-0.18,0.299-0.445,0.316c-0.291,0.035-0.65,0.064-1.086,0.085c-0.437,0.027-0.881,0.039-1.36,0.039
		c-0.23,0-0.342-0.089-0.342-0.269c0-0.116,0-0.198,0.017-0.249l4.789-26.023l-0.787-2.159c-0.034-0.099-0.051-0.18-0.051-0.243
		c0-0.26,0.163-0.419,0.496-0.467c0.256-0.051,0.564-0.096,0.916-0.137c0.35-0.038,0.692-0.077,1.025-0.106
		c0.334-0.035,0.642-0.061,0.915-0.072c0.283-0.018,0.488-0.025,0.616-0.025c0.188,0,0.324,0.046,0.419,0.144
		c0.094,0.099,0.188,0.24,0.265,0.42l8.774,23.107l8.997-20.583l-0.238-2.037c-0.019-0.018-0.035-0.081-0.035-0.196
		c0-0.274,0.162-0.45,0.469-0.514c0.266-0.051,0.565-0.096,0.907-0.137c0.343-0.038,0.676-0.077,1-0.106
		c0.334-0.035,0.633-0.061,0.907-0.072c0.266-0.018,0.461-0.025,0.599-0.025c0.41,0,0.633,0.188,0.684,0.563l3.335,28.084
		c0.017,0.064,0.017,0.12,0.017,0.158c0,0.044,0,0.078,0,0.111c0,0.313-0.153,0.492-0.463,0.54
		c-0.272,0.051-0.597,0.093-0.956,0.136c-0.359,0.04-0.71,0.072-1.053,0.099c-0.343,0.021-0.659,0.039-0.949,0.048
		c-0.281,0.009-0.488,0.012-0.615,0.012c-0.154,0-0.274-0.029-0.377-0.086c-0.093-0.06-0.153-0.149-0.17-0.282L276.704,440.793
		L276.704,440.793z"/>
	<path fill="#234F60" d="M294.115,454.245c-0.017,1.227,0.138,2.263,0.462,3.101c0.325,0.842,0.787,1.521,1.37,2.036
		c0.589,0.511,1.283,0.88,2.06,1.102c0.778,0.223,1.633,0.33,2.549,0.33c1.171,0,2.334-0.186,3.464-0.561
		c1.146-0.377,2.273-0.843,3.403-1.398v-23.381c0-0.376,0.188-0.603,0.58-0.685c0.266-0.052,0.565-0.09,0.899-0.124
		c0.333-0.034,0.659-0.06,0.991-0.085c0.326-0.026,0.624-0.047,0.898-0.059c0.266-0.019,0.463-0.026,0.599-0.026
		c0.393,0,0.582,0.204,0.582,0.61v27.427c0,0.39-0.189,0.619-0.582,0.685c-0.282,0.051-0.582,0.093-0.896,0.136
		c-0.318,0.04-0.625,0.072-0.933,0.099c-0.301,0.021-0.574,0.039-0.821,0.048c-0.24,0.009-0.429,0.012-0.565,0.012
		c-0.376,0-0.563-0.205-0.581-0.615l-0.171-2.005c-1.54,0.845-3.156,1.556-4.841,2.114c-1.692,0.565-3.404,0.848-5.139,0.848
		c-1.078,0-2.095-0.145-3.062-0.439c-0.967-0.295-1.804-0.744-2.515-1.348c-0.71-0.607-1.274-1.376-1.685-2.316
		c-0.426-0.94-0.632-2.045-0.632-3.318v-17.796c0-0.459-0.043-0.832-0.137-1.112c-0.086-0.287-0.222-0.515-0.394-0.675
		c-0.172-0.163-0.368-0.279-0.607-0.345c-0.231-0.067-0.504-0.098-0.795-0.098c-0.324,0-0.684,0.025-1.078,0.072l-0.153-1.347
		c0.889-0.166,1.727-0.303,2.514-0.419c0.797-0.11,1.497-0.2,2.113-0.269c0.607-0.065,1.12-0.116,1.531-0.146
		c0.409-0.033,0.667-0.051,0.787-0.051c0.521,0,0.786,0.266,0.786,0.786V454.245L294.115,454.245z"/>
	<path fill="#234F60" d="M322.123,433.832c0.181,0,0.317,0.052,0.42,0.158c0.094,0.105,0.205,0.242,0.341,0.406l16.934,22.474
		l-0.616-21.986c0-0.193,0.138-0.3,0.394-0.316c0.291-0.046,0.685-0.098,1.181-0.149c0.485-0.049,0.957-0.073,1.419-0.073
		c0.257,0,0.395,0.125,0.395,0.367l-0.593,23.897v4.481c0,0.197-0.125,0.306-0.392,0.322c-0.291,0.033-0.625,0.056-0.992,0.072
		c-0.368,0.018-0.742,0.025-1.111,0.025c-0.146,0-0.265-0.029-0.352-0.086c-0.076-0.06-0.153-0.149-0.239-0.282l-17.052-22.646
		l0.607,22.547c0,0.198-0.129,0.305-0.387,0.321c-0.298,0.048-0.699,0.09-1.214,0.12c-0.521,0.035-0.983,0.051-1.384,0.051
		c-0.265,0-0.395-0.123-0.395-0.367l0.607-25.539l-2.01-2.746c-0.067-0.065-0.095-0.154-0.095-0.27c0-0.209,0.146-0.358,0.438-0.441
		c0.265-0.046,0.598-0.093,1.009-0.131c0.41-0.043,0.822-0.081,1.232-0.112c0.427-0.034,0.804-0.056,1.145-0.072
		C321.757,433.84,321.996,433.832,322.123,433.832L322.123,433.832z"/>
	<path fill="#234F60" d="M346.556,435.131c0.89-0.166,1.719-0.303,2.515-0.419c0.786-0.11,1.487-0.2,2.103-0.269
		c0.616-0.065,1.131-0.116,1.541-0.146c0.402-0.033,0.666-0.051,0.777-0.051c0.523,0,0.788,0.266,0.788,0.786v27.5
		c0,0.39-0.197,0.619-0.59,0.685c-0.275,0.051-0.582,0.093-0.926,0.136c-0.324,0.04-0.657,0.072-0.975,0.099
		c-0.324,0.021-0.616,0.039-0.887,0.048c-0.267,0.009-0.464,0.012-0.601,0.012c-0.385,0-0.582-0.205-0.582-0.615v-24.261
		c0-0.459-0.051-0.832-0.138-1.112c-0.083-0.287-0.221-0.515-0.392-0.675c-0.172-0.163-0.377-0.279-0.615-0.345
		c-0.232-0.067-0.497-0.098-0.787-0.098c-0.359,0-0.719,0.025-1.087,0.072L346.556,435.131L346.556,435.131z"/>
	<path fill="#234F60" d="M385.912,461.356c-0.847,0.47-1.779,0.872-2.788,1.198c-1.01,0.328-2.002,0.588-2.976,0.785
		c-0.976,0.196-1.882,0.338-2.72,0.428c-0.848,0.089-1.522,0.137-2.053,0.137c-2.258,0-4.31-0.381-6.174-1.142
		c-1.866-0.761-3.456-1.81-4.79-3.147c-1.333-1.341-2.369-2.933-3.104-4.78c-0.727-1.848-1.104-3.865-1.104-6.056
		c0-2.368,0.419-4.466,1.25-6.296c0.838-1.833,1.983-3.371,3.454-4.62c1.472-1.248,3.216-2.197,5.225-2.844
		c2.011-0.646,4.191-0.97,6.542-0.97c1.326,0,2.592,0.085,3.798,0.261c1.215,0.171,2.396,0.38,3.531,0.624
		c0.147,0.03,0.266,0.104,0.352,0.211c0.093,0.102,0.155,0.213,0.164,0.328c0.016,0.23,0.041,0.521,0.06,0.88
		c0.033,0.359,0.051,0.749,0.067,1.169c0.016,0.414,0.034,0.837,0.052,1.274c0.033,0.43,0.051,0.832,0.068,1.196
		c0.018,0.368,0.025,0.685,0.033,0.944c0.009,0.261,0.018,0.428,0.018,0.493l-1.231,0.118c-0.094-1.008-0.394-1.868-0.891-2.568
		c-0.494-0.707-1.119-1.271-1.845-1.707c-0.736-0.431-1.559-0.744-2.445-0.941c-0.892-0.195-1.78-0.295-2.652-0.295
		c-1.787,0-3.335,0.295-4.653,0.881c-1.317,0.591-2.412,1.402-3.284,2.442c-0.871,1.034-1.521,2.263-1.958,3.673
		c-0.436,1.415-0.648,2.954-0.648,4.622c0,1.942,0.264,3.751,0.793,5.426c0.531,1.677,1.334,3.126,2.396,4.35
		c1.06,1.228,2.377,2.193,3.969,2.895c1.58,0.701,3.438,1.053,5.558,1.053c1.282,0,2.514-0.138,3.703-0.416
		c1.189-0.276,2.403-0.654,3.626-1.129L385.912,461.356L385.912,461.356z"/>
	<path fill="#234F60" d="M395.184,450.841h9.184l-4.652-12.156L395.184,450.841L395.184,450.841z M394.396,452.925l-3.781,10.166
		c-0.06,0.185-0.205,0.287-0.437,0.322c-0.298,0.033-0.624,0.056-1,0.072c-0.376,0.018-0.804,0.025-1.282,0.025
		c-0.258,0-0.386-0.08-0.386-0.243c0-0.051,0.009-0.095,0.026-0.125l11.22-26.908l-0.513-1.424c-0.035-0.127-0.052-0.218-0.052-0.27
		c0-0.244,0.155-0.393,0.462-0.44c0.265-0.051,0.573-0.096,0.925-0.137c0.358-0.038,0.692-0.077,1.017-0.106
		c0.333-0.035,0.624-0.061,0.906-0.072c0.283-0.018,0.488-0.025,0.615-0.025c0.326,0,0.565,0.188,0.711,0.563l10.93,28.132
		c0.051,0.132,0.068,0.222,0.068,0.268c0,0.279-0.153,0.446-0.479,0.494c-0.3,0.051-0.633,0.093-0.991,0.136
		c-0.377,0.04-0.736,0.072-1.087,0.099c-0.351,0.021-0.675,0.039-0.967,0.048c-0.291,0.009-0.513,0.012-0.633,0.012
		c-0.281,0-0.47-0.124-0.564-0.368l-4.002-10.39L394.396,452.925L394.396,452.925z"/>
	<path fill="#234F60" d="M419.471,436.773c-1.062,0-1.942,0.024-2.635,0.086c-0.701,0.054-1.274,0.243-1.728,0.563
		c-0.462,0.317-0.839,0.821-1.146,1.506c-0.299,0.688-0.591,1.65-0.872,2.89l-1.215-0.119c0-0.064,0-0.243,0.009-0.537
		c0.008-0.297,0.025-0.647,0.043-1.058c0.033-0.406,0.051-0.855,0.076-1.348c0.025-0.49,0.06-0.966,0.087-1.431
		c0.033-0.467,0.065-0.899,0.093-1.301c0.034-0.402,0.067-0.714,0.104-0.944c0.016-0.244,0.162-0.369,0.443-0.369
		c1.488,0.035,2.908,0.062,4.26,0.077c1.36,0.014,2.607,0.021,3.745,0.021h8.168c1.146,0,2.403-0.008,3.771-0.021
		c1.377-0.016,2.805-0.042,4.293-0.077c0.231,0,0.358,0.125,0.394,0.369c0.034,0.23,0.059,0.542,0.085,0.944
		c0.018,0.401,0.051,0.834,0.068,1.301c0.035,0.465,0.052,0.94,0.069,1.431c0.017,0.492,0.026,0.941,0.035,1.348
		c0.009,0.41,0.016,0.761,0.016,1.058c0.017,0.294,0.017,0.473,0.017,0.537l-1.222,0.119c-0.282-1.239-0.557-2.202-0.847-2.89
		c-0.291-0.685-0.65-1.188-1.095-1.506c-0.437-0.32-0.993-0.51-1.678-0.563c-0.674-0.062-1.555-0.086-2.633-0.086h-3.13v25.759
		c0,0.39-0.206,0.619-0.599,0.685c-0.273,0.051-0.58,0.093-0.915,0.136c-0.334,0.04-0.66,0.072-0.983,0.099
		c-0.317,0.021-0.608,0.039-0.872,0.048c-0.273,0.009-0.479,0.012-0.607,0.012c-0.386,0-0.589-0.205-0.589-0.615v-26.122H419.471
		L419.471,436.773z"/>
	<path fill="#234F60" d="M438.9,435.131c0.89-0.166,1.728-0.303,2.514-0.419c0.786-0.11,1.496-0.2,2.104-0.269
		c0.616-0.065,1.128-0.116,1.538-0.146c0.412-0.033,0.667-0.051,0.787-0.051c0.513,0,0.778,0.266,0.778,0.786v27.5
		c0,0.39-0.196,0.619-0.589,0.685c-0.273,0.051-0.583,0.093-0.916,0.136c-0.334,0.04-0.659,0.072-0.982,0.099
		c-0.317,0.021-0.616,0.039-0.882,0.048c-0.267,0.009-0.47,0.012-0.607,0.012c-0.385,0-0.581-0.205-0.581-0.615v-24.261
		c0-0.459-0.042-0.832-0.137-1.112c-0.087-0.287-0.224-0.515-0.395-0.675c-0.171-0.163-0.377-0.279-0.606-0.345
		c-0.24-0.067-0.505-0.098-0.796-0.098c-0.358,0-0.718,0.025-1.077,0.072L438.9,435.131L438.9,435.131z"/>
	<path fill="#234F60" d="M466.626,436.11c-1.608,0-2.977,0.325-4.122,0.979c-1.147,0.655-2.079,1.533-2.805,2.627
		c-0.728,1.09-1.268,2.353-1.609,3.771c-0.342,1.424-0.513,2.899-0.513,4.438c0,1.714,0.188,3.404,0.548,5.071
		c0.376,1.669,0.957,3.151,1.762,4.46c0.795,1.309,1.829,2.364,3.112,3.172c1.265,0.813,2.806,1.215,4.602,1.215
		c1.606,0,2.976-0.338,4.12-1.018c1.147-0.676,2.07-1.578,2.806-2.693c0.72-1.12,1.268-2.403,1.607-3.849
		c0.343-1.444,0.515-2.938,0.515-4.472c0-1.716-0.188-3.397-0.557-5.039c-0.368-1.641-0.949-3.103-1.754-4.386
		c-0.802-1.282-1.838-2.318-3.112-3.1C469.96,436.503,468.421,436.11,466.626,436.11L466.626,436.11z M467.848,434.05
		c2.112,0,4.011,0.328,5.704,0.982c1.702,0.654,3.156,1.596,4.353,2.831c1.207,1.231,2.13,2.749,2.779,4.545
		c0.66,1.797,0.984,3.832,0.984,6.103c0,2.485-0.368,4.682-1.086,6.595c-0.735,1.91-1.762,3.514-3.104,4.813
		c-1.345,1.302-2.952,2.289-4.841,2.969c-1.891,0.675-3.994,1.018-6.312,1.018c-2.113,0-4.011-0.343-5.722-1.018
		c-1.71-0.68-3.165-1.646-4.361-2.908c-1.196-1.257-2.12-2.793-2.771-4.604c-0.65-1.813-0.966-3.866-0.966-6.154
		c0-2.466,0.367-4.648,1.084-6.541c0.736-1.894,1.764-3.48,3.106-4.755c1.342-1.275,2.949-2.237,4.839-2.892
		S465.531,434.05,467.848,434.05L467.848,434.05z"/>
	<path fill="#234F60" d="M489.853,433.832c0.188,0,0.324,0.052,0.419,0.158c0.094,0.105,0.214,0.242,0.342,0.406l16.941,22.474
		l-0.614-21.986c0-0.193,0.126-0.3,0.392-0.316c0.292-0.046,0.684-0.098,1.172-0.149c0.487-0.049,0.967-0.073,1.429-0.073
		c0.256,0,0.385,0.125,0.385,0.367l-0.591,23.897v4.481c0,0.197-0.128,0.306-0.393,0.322c-0.292,0.033-0.615,0.056-0.992,0.072
		c-0.358,0.018-0.735,0.025-1.111,0.025c-0.146,0-0.258-0.029-0.342-0.086c-0.087-0.06-0.163-0.149-0.24-0.282l-17.069-22.646
		l0.615,22.547c0,0.198-0.129,0.305-0.393,0.321c-0.291,0.048-0.693,0.09-1.216,0.12c-0.513,0.035-0.974,0.051-1.374,0.051
		c-0.267,0-0.396-0.123-0.396-0.367l0.607-25.539l-2.001-2.746c-0.068-0.065-0.104-0.154-0.104-0.27
		c0-0.209,0.154-0.358,0.445-0.441c0.257-0.046,0.599-0.093,1.001-0.131c0.409-0.043,0.82-0.081,1.239-0.112
		c0.411-0.034,0.796-0.056,1.138-0.072C489.484,433.84,489.725,433.832,489.853,433.832L489.853,433.832z"/>
	<path fill="#234F60" d="M533.776,459.394c0,0.393,0.007,0.696,0.032,0.919s0.087,0.394,0.196,0.513
		c0.111,0.123,0.283,0.201,0.523,0.235c0.255,0.029,0.599,0.047,1.034,0.047h2.421c1.315,0,2.378-0.033,3.197-0.098
		c0.83-0.064,1.531-0.27,2.104-0.611c0.563-0.342,1.077-0.864,1.521-1.57c0.436-0.701,0.924-1.688,1.463-2.963l1.224,0.27
		c0,0.11-0.036,0.414-0.119,0.908c-0.087,0.485-0.189,1.051-0.309,1.688c-0.12,0.637-0.257,1.291-0.403,1.963
		c-0.145,0.667-0.29,1.248-0.436,1.74c-0.223,0.556-0.615,0.834-1.205,0.834c-1.224-0.019-2.746-0.035-4.577-0.051
		c-1.812-0.02-4.009-0.026-6.574-0.026h-4.063c-0.239,0-0.395-0.068-0.471-0.21c-0.077-0.136-0.12-0.27-0.12-0.401v-23.944
		c0-0.459-0.044-0.832-0.138-1.112c-0.095-0.287-0.222-0.515-0.392-0.675c-0.173-0.163-0.378-0.279-0.608-0.345
		c-0.239-0.067-0.514-0.098-0.804-0.098c-0.359,0-0.72,0.025-1.077,0.072l-0.146-1.347c0.882-0.166,1.719-0.303,2.507-0.419
		c0.803-0.11,1.505-0.2,2.11-0.269c0.617-0.065,1.121-0.116,1.532-0.146c0.412-0.033,0.668-0.051,0.786-0.051
		c0.523,0,0.789,0.266,0.789,0.786V459.394L533.776,459.394z"/>
	<path fill="#234F60" d="M552.247,436.773c-1.061,0-1.934,0.024-2.633,0.086c-0.692,0.054-1.268,0.243-1.729,0.563
		c-0.452,0.317-0.839,0.821-1.136,1.506c-0.301,0.688-0.591,1.65-0.865,2.89l-1.229-0.119c0-0.064,0-0.243,0.015-0.537
		c0-0.297,0.019-0.647,0.052-1.058c0.018-0.406,0.043-0.855,0.067-1.348c0.019-0.49,0.053-0.966,0.087-1.431
		c0.035-0.467,0.068-0.899,0.103-1.301c0.025-0.402,0.061-0.714,0.095-0.944c0.007-0.244,0.162-0.369,0.436-0.369
		c1.488,0.035,2.908,0.062,4.269,0.077c1.358,0.014,2.608,0.021,3.754,0.021h8.159c1.145,0,2.395-0.008,3.771-0.021
		c1.377-0.016,2.805-0.042,4.284-0.077c0.241,0,0.359,0.125,0.394,0.369c0.035,0.23,0.068,0.542,0.085,0.944
		c0.035,0.401,0.052,0.834,0.078,1.301c0.025,0.465,0.041,0.94,0.06,1.431c0.018,0.492,0.034,0.941,0.034,1.348
		c0.017,0.41,0.017,0.761,0.034,1.058c0,0.294,0.009,0.473,0.009,0.537l-1.224,0.119c-0.281-1.239-0.564-2.202-0.854-2.89
		c-0.275-0.685-0.642-1.188-1.086-1.506c-0.437-0.32-1.001-0.51-1.677-0.563c-0.675-0.062-1.557-0.086-2.633-0.086h-3.14v25.759
		c0,0.39-0.197,0.619-0.59,0.685c-0.274,0.051-0.582,0.093-0.915,0.136c-0.343,0.04-0.668,0.072-0.984,0.099
		c-0.315,0.021-0.606,0.039-0.88,0.048c-0.274,0.009-0.47,0.012-0.598,0.012c-0.396,0-0.593-0.205-0.593-0.615v-26.122H552.247
		L552.247,436.773z"/>
	<path fill="#234F60" d="M579.408,461.232c0.615,0.146,1.249,0.247,1.883,0.308c0.64,0.055,1.298,0.086,1.982,0.086
		c1.968,0,3.711-0.3,5.251-0.899c1.539-0.594,2.822-1.448,3.866-2.56c1.05-1.108,1.846-2.46,2.394-4.042
		c0.548-1.587,0.821-3.365,0.821-5.346c0-1.876-0.282-3.591-0.848-5.145c-0.563-1.551-1.384-2.889-2.462-4.006
		c-1.077-1.121-2.403-1.988-3.967-2.6c-1.565-0.61-3.362-0.919-5.364-0.919h-1.256c-0.728,0-1.301,0.06-1.701,0.184
		c-0.402,0.125-0.6,0.453-0.6,0.993V461.232L579.408,461.232z M575.439,463.19c-0.393,0-0.598-0.201-0.598-0.611v-24.19
		c0-0.833-0.171-1.384-0.53-1.653s-0.831-0.403-1.402-0.403c-0.327,0-0.685,0.021-1.078,0.073l-0.145-1.324
		c1.83-0.308,3.686-0.56,5.549-0.75c1.873-0.188,3.746-0.281,5.628-0.281c1.565,0,3.094,0.094,4.592,0.273
		c1.496,0.18,2.899,0.479,4.217,0.906c1.317,0.424,2.513,0.987,3.617,1.688c1.096,0.706,2.035,1.578,2.831,2.623
		c0.787,1.047,1.402,2.277,1.847,3.701c0.443,1.419,0.667,3.062,0.667,4.927c0,2.467-0.443,4.661-1.316,6.579
		c-0.873,1.922-2.087,3.541-3.653,4.867c-1.564,1.321-3.41,2.326-5.566,3.015c-2.138,0.685-4.48,1.026-7.013,1.026
		c-0.736,0-1.385-0.021-1.95-0.072c-0.563-0.048-1.127-0.103-1.675-0.159c-0.565-0.06-1.146-0.11-1.779-0.157
		C577.048,463.217,576.304,463.19,575.439,463.19L575.439,463.19z"/>
	<path fill="#234F60" d="M607.715,461.182c0,0.932-0.256,1.61-0.77,2.035c-0.522,0.422-1.249,0.636-2.172,0.636
		c-0.787,0-1.386-0.235-1.796-0.71c-0.428-0.474-0.633-1.128-0.633-1.961c0-0.929,0.255-1.612,0.786-2.045
		c0.522-0.433,1.248-0.65,2.18-0.65c0.78,0,1.377,0.24,1.789,0.723C607.511,459.691,607.715,460.351,607.715,461.182
		L607.715,461.182z"/>
</g>
</svg>
